<svg width="25" height="25" viewBox="0 0 25 25" fill="none" xmlns="http://www.w3.org/2000/svg">
<path d="M24.7609 12.4995C24.7609 19.2708 19.2715 24.76 12.5 24.76C5.7285 24.76 0.239126 19.2708 0.239126 12.4995C0.239126 5.72831 5.7285 0.239126 12.5 0.239126C19.2715 0.239126 24.7609 5.72831 24.7609 12.4995Z" stroke="#82BFED" stroke-width="0.478252"/>
<path d="M13.9375 13.905L12.6175 10.2975C12.5525 10.1375 12.485 9.9475 12.415 9.7275C12.345 9.5075 12.275 9.27 12.205 9.015C12.14 9.27 12.0725 9.51 12.0025 9.735C11.9325 9.955 11.865 10.1475 11.8 10.3125L10.4875 13.905H13.9375ZM17.5 18H15.94C15.765 18 15.6225 17.9575 15.5125 17.8725C15.4025 17.7825 15.32 17.6725 15.265 17.5425L14.455 15.33H9.9625L9.1525 17.5425C9.1125 17.6575 9.035 17.7625 8.92 17.8575C8.805 17.9525 8.6625 18 8.4925 18H6.9175L11.185 7.155H13.24L17.5 18Z" fill="#82BFED"/>
</svg>
