<svg width="33" height="33" viewBox="0 0 33 33" fill="none" xmlns="http://www.w3.org/2000/svg">
<path d="M32.7609 16.4984C32.7609 25.4787 25.4806 32.7587 16.5 32.7587C7.51936 32.7587 0.239126 25.4787 0.239126 16.4984C0.239126 7.51813 7.51936 0.238149 16.5 0.238149C25.4806 0.238149 32.7609 7.51813 32.7609 16.4984Z" stroke="#82BFED" stroke-width="0.478252"/>
<path d="M18.3999 17.632L16.9919 13.784C16.9225 13.6133 16.8505 13.4107 16.7759 13.176C16.7012 12.9413 16.6265 12.688 16.5519 12.416C16.4825 12.688 16.4105 12.944 16.3359 13.184C16.2612 13.4187 16.1892 13.624 16.1199 13.8L14.7199 17.632H18.3999ZM22.1999 22H20.5359C20.3492 22 20.1972 21.9547 20.0799 21.864C19.9625 21.768 19.8745 21.6507 19.8159 21.512L18.9519 19.152H14.1599L13.2959 21.512C13.2532 21.6347 13.1705 21.7467 13.0479 21.848C12.9252 21.9493 12.7732 22 12.5919 22H10.9119L15.4639 10.432H17.6559L22.1999 22Z" fill="#82BFED"/>
</svg>
