<svg width="1440" height="40" viewBox="0 0 1440 40" fill="none" xmlns="http://www.w3.org/2000/svg">
<path fill-rule="evenodd" clip-rule="evenodd" d="M60 4.28571L0 2.85714V20V37.1429L60 37.8571C120 38.5714 240 40 360 40C480 40 600 38.5714 720 36.4286C744 36 768 35.5429 792 35.0857C888 33.2571 984 31.4286 1080 31.4286C1200 31.4286 1320 34.2857 1380 35.7143L1440 37.1429V20V2.85714L1380 2.14286C1320 1.42857 1200 0 1080 0C960 0 840 1.42857 720 3.57143C696 4 672 4.45714 648 4.91429C552 6.74286 456 8.57143 360 8.57143C240 8.57143 120 5.71429 60 4.28571Z" fill="#F4FBFD"/>
</svg>
