<svg width="16" height="17" viewBox="0 0 16 17" fill="none" xmlns="http://www.w3.org/2000/svg">
<path id="Vector" d="M5.15312 1.26897C4.9125 0.687716 4.27812 0.378341 3.67188 0.543966L0.921875 1.29397C0.378125 1.44397 0 1.93772 0 2.50022C0 10.2315 6.26875 16.5002 14 16.5002C14.5625 16.5002 15.0563 16.1221 15.2063 15.5783L15.9563 12.8283C16.1219 12.2221 15.8125 11.5877 15.2312 11.3471L12.2312 10.0971C11.7219 9.88459 11.1313 10.0315 10.7844 10.4596L9.52188 12.0002C7.32188 10.9596 5.54063 9.17834 4.5 6.97834L6.04063 5.71897C6.46875 5.36897 6.61562 4.78147 6.40312 4.27209L5.15312 1.27209V1.26897Z" fill="#FF8B71"/>
</svg>
