<svg width="26" height="26" viewBox="0 0 26 26" fill="none" xmlns="http://www.w3.org/2000/svg">
<path id="Line 115" d="M1.35539 11.7167C0.677398 12.3947 0.677398 13.494 1.35539 14.172L12.4039 25.2205C13.0819 25.8985 14.1812 25.8985 14.8592 25.2205C15.5372 24.5425 15.5372 23.4433 14.8592 22.7653L5.03824 12.9443L14.8592 3.12341C15.5372 2.44542 15.5372 1.34617 14.8592 0.668177C14.1812 -0.00981617 13.0819 -0.00981617 12.4039 0.668177L1.35539 11.7167ZM23.4163 14.6804C24.3752 14.6804 25.1525 13.9032 25.1525 12.9443C25.1525 11.9855 24.3752 11.2082 23.4163 11.2082V14.6804ZM2.58301 14.6804H23.4163V11.2082H2.58301V14.6804Z" fill="black"/>
</svg>
