<svg width="25" height="26" viewBox="0 0 25 26" fill="none" xmlns="http://www.w3.org/2000/svg">
<ellipse cx="12.5005" cy="13.2764" rx="12.5005" ry="12.5" fill="#82BFED"/>
<path d="M8.6325 13.5775C8.6325 14.1725 8.7125 14.7075 8.8725 15.1825C9.0325 15.6525 9.26 16.0525 9.555 16.3825C9.855 16.7075 10.215 16.9575 10.635 17.1325C11.06 17.3075 11.5375 17.395 12.0675 17.395C12.5975 17.395 13.0725 17.3075 13.4925 17.1325C13.9175 16.9575 14.2775 16.7075 14.5725 16.3825C14.8675 16.0525 15.095 15.6525 15.255 15.1825C15.415 14.7075 15.495 14.1725 15.495 13.5775C15.495 12.9825 15.415 12.45 15.255 11.98C15.095 11.505 14.8675 11.1025 14.5725 10.7725C14.2775 10.4425 13.9175 10.19 13.4925 10.015C13.0725 9.84 12.5975 9.7525 12.0675 9.7525C11.5375 9.7525 11.06 9.84 10.635 10.015C10.215 10.19 9.855 10.4425 9.555 10.7725C9.26 11.1025 9.0325 11.505 8.8725 11.98C8.7125 12.45 8.6325 12.9825 8.6325 13.5775ZM18.12 21.1225H16.455C16.215 21.1225 15.9975 21.09 15.8025 21.025C15.6125 20.96 15.4375 20.84 15.2775 20.665L13.6875 18.91C13.4325 18.98 13.17 19.0325 12.9 19.0675C12.635 19.1025 12.3575 19.12 12.0675 19.12C11.2475 19.12 10.5 18.9825 9.825 18.7075C9.15 18.4275 8.57 18.04 8.085 17.545C7.605 17.05 7.2325 16.465 6.9675 15.79C6.7025 15.11 6.57 14.3725 6.57 13.5775C6.57 12.7825 6.7025 12.0475 6.9675 11.3725C7.2325 10.6925 7.605 10.105 8.085 9.61C8.57 9.115 9.15 8.73 9.825 8.455C10.5 8.175 11.2475 8.035 12.0675 8.035C12.6175 8.035 13.135 8.1 13.62 8.23C14.105 8.355 14.55 8.535 14.955 8.77C15.36 9 15.7225 9.2825 16.0425 9.6175C16.3675 9.9475 16.6425 10.3175 16.8675 10.7275C17.0925 11.1375 17.2625 11.5825 17.3775 12.0625C17.4975 12.5425 17.5575 13.0475 17.5575 13.5775C17.5575 14.0625 17.5075 14.5275 17.4075 14.9725C17.3075 15.4125 17.1625 15.825 16.9725 16.21C16.7875 16.595 16.56 16.95 16.29 17.275C16.02 17.595 15.7125 17.8775 15.3675 18.1225L18.12 21.1225Z" fill="white"/>
</svg>
