<svg width="33" height="33" viewBox="0 0 33 33" fill="none" xmlns="http://www.w3.org/2000/svg">
<ellipse cx="16.5" cy="16.4994" rx="16.5" ry="16.4994" fill="#82BFED"/>
<path d="M12.808 16.216C12.808 16.8507 12.8933 17.4213 13.064 17.928C13.2347 18.4293 13.4773 18.856 13.792 19.208C14.112 19.5547 14.496 19.8213 14.944 20.008C15.3973 20.1947 15.9067 20.288 16.472 20.288C17.0373 20.288 17.544 20.1947 17.992 20.008C18.4453 19.8213 18.8293 19.5547 19.144 19.208C19.4587 18.856 19.7013 18.4293 19.872 17.928C20.0427 17.4213 20.128 16.8507 20.128 16.216C20.128 15.5813 20.0427 15.0133 19.872 14.512C19.7013 14.0053 19.4587 13.576 19.144 13.224C18.8293 12.872 18.4453 12.6027 17.992 12.416C17.544 12.2293 17.0373 12.136 16.472 12.136C15.9067 12.136 15.3973 12.2293 14.944 12.416C14.496 12.6027 14.112 12.872 13.792 13.224C13.4773 13.576 13.2347 14.0053 13.064 14.512C12.8933 15.0133 12.808 15.5813 12.808 16.216ZM22.928 24.264H21.152C20.896 24.264 20.664 24.2293 20.456 24.16C20.2533 24.0907 20.0667 23.9627 19.896 23.776L18.2 21.904C17.928 21.9787 17.648 22.0347 17.36 22.072C17.0773 22.1093 16.7813 22.128 16.472 22.128C15.5973 22.128 14.8 21.9813 14.08 21.688C13.36 21.3893 12.7413 20.976 12.224 20.448C11.712 19.92 11.3147 19.296 11.032 18.576C10.7493 17.8507 10.608 17.064 10.608 16.216C10.608 15.368 10.7493 14.584 11.032 13.864C11.3147 13.1387 11.712 12.512 12.224 11.984C12.7413 11.456 13.36 11.0453 14.08 10.752C14.8 10.4533 15.5973 10.304 16.472 10.304C17.0587 10.304 17.6107 10.3733 18.128 10.512C18.6453 10.6453 19.12 10.8373 19.552 11.088C19.984 11.3333 20.3707 11.6347 20.712 11.992C21.0587 12.344 21.352 12.7387 21.592 13.176C21.832 13.6133 22.0133 14.088 22.136 14.6C22.264 15.112 22.328 15.6507 22.328 16.216C22.328 16.7333 22.2747 17.2293 22.168 17.704C22.0613 18.1733 21.9067 18.6133 21.704 19.024C21.5067 19.4347 21.264 19.8133 20.976 20.16C20.688 20.5013 20.36 20.8027 19.992 21.064L22.928 24.264Z" fill="white"/>
</svg>
