<svg width="68" height="87" viewBox="0 0 68 87" fill="none" xmlns="http://www.w3.org/2000/svg">
<path id="Vector" fill-rule="evenodd" clip-rule="evenodd" d="M12.9615 8.94621C12.9615 6.70154 13.8532 4.5488 15.4405 2.96158C17.0277 1.37436 19.1804 0.482666 21.4251 0.482666C23.6697 0.482666 25.8225 1.37436 27.4097 2.96158C28.9969 4.5488 29.8886 6.70154 29.8886 8.94621V21.7611C30.9722 21.1938 32.1657 20.8679 33.3872 20.8059C34.6088 20.7439 35.8292 20.9472 36.9646 21.4019C38.1001 21.8566 39.1235 22.5518 39.9646 23.4398C40.8057 24.3278 41.4444 25.3874 41.8369 26.5459C43.1192 25.7657 44.5859 25.3409 46.0867 25.3148C47.5874 25.2888 49.068 25.6625 50.3766 26.3977C51.6852 27.1329 52.7746 28.203 53.5331 29.4982C54.2915 30.7934 54.6916 32.2671 54.6924 33.7681V34.7205C55.4208 34.4661 56.1869 34.3364 56.9584 34.3368H58.6466C63.323 34.3368 67.1101 38.1285 67.1101 42.8004V58.8698C67.1241 58.967 67.1317 59.065 67.1327 59.1632C67.1327 68.8229 63.4765 75.7157 57.798 80.1302C52.2098 84.4771 44.8973 86.2466 37.7924 86.2466C30.6154 86.2466 24.5442 84.4455 19.3577 81.0872C14.2074 77.7559 10.0456 72.9622 6.54279 67.1393C5.02528 64.8227 3.55347 62.4765 2.1282 60.1021C-2.98603 51.6747 3.21154 41.1077 12.9615 41.1077V8.94621ZM10.172 64.8462C8.66609 62.554 7.2063 60.2319 5.79348 57.8813C2.46674 52.3924 6.45251 45.3959 12.9615 45.3959H13.1872V52.3924C13.1872 52.9311 13.4012 53.4478 13.7822 53.8287C14.1631 54.2096 14.6798 54.4236 15.2185 54.4236C15.7572 54.4236 16.2739 54.2096 16.6548 53.8287C17.0357 53.4478 17.2497 52.9311 17.2497 52.3924V8.94621C17.2497 7.83884 17.6896 6.77682 18.4727 5.99379C19.2557 5.21076 20.3177 4.77086 21.4251 4.77086C22.5324 4.77086 23.5945 5.21076 24.3775 5.99379C25.1605 6.77682 25.6004 7.83884 25.6004 8.94621L25.5869 41.1077C25.5869 41.6464 25.8009 42.163 26.1818 42.544C26.5628 42.9249 27.0794 43.1389 27.6181 43.1389C28.1569 43.1389 28.6735 42.9249 29.0544 42.544C29.4354 42.163 29.6494 41.6464 29.6494 41.1077V29.1504C29.7113 28.0759 30.1854 27.0667 30.9728 26.333C31.7602 25.5993 32.8003 25.1975 33.8765 25.2115C34.9527 25.2255 35.9821 25.654 36.7502 26.4079C37.5183 27.1618 37.966 28.183 38.0001 29.2587V39.3021C38.0001 39.8408 38.2141 40.3575 38.595 40.7384C38.976 41.1194 39.4926 41.3334 40.0313 41.3334C40.5701 41.3334 41.0867 41.1194 41.4676 40.7384C41.8486 40.3575 42.0626 39.8408 42.0626 39.3021V36.8646C42.0749 36.7734 42.081 36.6814 42.0806 36.5893L42.0716 33.7726C42.071 33.2249 42.1783 32.6824 42.3874 32.1761C42.5964 31.6699 42.9031 31.2098 43.29 30.822C43.6769 30.4343 44.1364 30.1266 44.6422 29.9165C45.148 29.7063 45.6902 29.5978 46.2379 29.5972C46.7856 29.5967 47.3281 29.7039 47.8344 29.913C48.3406 30.1221 48.8008 30.4288 49.1885 30.8157C49.5762 31.2025 49.8839 31.662 50.0941 32.1678C50.3042 32.6736 50.4127 33.2158 50.4133 33.7636V43.3646C50.4133 43.9033 50.6273 44.42 51.0082 44.8009C51.3891 45.1819 51.9058 45.3959 52.4445 45.3959C52.9832 45.3959 53.4999 45.1819 53.8808 44.8009C54.2618 44.42 54.4758 43.9033 54.4758 43.3646V41.1077C54.4758 40.4492 54.7373 39.8178 55.2029 39.3522C55.6685 38.8866 56.3 38.625 56.9584 38.625H58.6466C60.9532 38.625 62.822 40.4938 62.822 42.8004V59.1632C62.822 59.2535 62.831 59.3393 62.84 59.4205L62.8445 59.4521C62.7723 67.7486 59.6532 73.2511 55.1664 76.7403C50.5442 80.3334 44.2608 81.9584 37.7879 81.9584C31.3782 81.9584 26.1285 80.3604 21.6869 77.4896C17.2181 74.6007 13.4716 70.3486 10.1945 64.8868C10.1854 64.8726 10.1779 64.8575 10.172 64.8417" fill="black"/>
</svg>
