<svg width="36" height="30" viewBox="0 0 36 30" fill="none" xmlns="http://www.w3.org/2000/svg">
<g clip-path="url(#clip0_8004_4738)">
<path d="M1 21.5971C7.25844 19.4749 23.4261 15.7602 23.4261 18.4108C23.9476 20.0046 16.4518 21.9403 17.6892 21.5967C19.7753 21.0173 23.1818 21.7219 28.6414 18.9422C32.8137 16.818 34.3784 18.4109 34.3784 18.4109C34.3784 18.4109 36.3222 20.0762 33.3353 21.5967C28.1199 24.2515 22.383 27.9691 16.1246 27.9691C9.86612 27.9691 7.25844 24.2524 1 28.5002" stroke="url(#paint0_linear_8004_4738)" stroke-width="1.5" stroke-linecap="round"/>
<path d="M21.2666 2.24231C20.0388 2.24231 18.949 2.73575 18.2107 3.58386C17.4724 2.73575 16.3827 2.24231 15.1549 2.24231C14.0854 2.24363 13.0602 2.67673 12.304 3.44661C11.5478 4.2165 11.1224 5.26031 11.1211 6.34909C11.1211 10.8504 17.5879 14.4469 17.863 14.5981C17.9699 14.6567 18.0893 14.6874 18.2107 14.6874C18.3321 14.6874 18.4516 14.6567 18.5585 14.5981C18.8335 14.4469 25.3004 10.8504 25.3004 6.34909C25.2991 5.26031 24.8737 4.2165 24.1175 3.44661C23.3613 2.67673 22.336 2.24363 21.2666 2.24231ZM20.9311 11.1005C20.0799 11.8359 19.1699 12.4978 18.2107 13.0792C17.2515 12.4978 16.3416 11.8359 15.4904 11.1005C14.166 9.94377 12.5879 8.17972 12.5879 6.34909C12.5879 5.65597 12.8584 4.99124 13.3398 4.50114C13.8211 4.01103 14.4741 3.73569 15.1549 3.73569C16.2427 3.73569 17.1534 4.32059 17.5317 5.26266C17.5868 5.4 17.6808 5.51752 17.8017 5.60025C17.9226 5.68297 18.065 5.72715 18.2107 5.72715C18.3564 5.72715 18.4988 5.68297 18.6198 5.60025C18.7407 5.51752 18.8347 5.4 18.8897 5.26266C19.2681 4.32059 20.1787 3.73569 21.2666 3.73569C21.9474 3.73569 22.6003 4.01103 23.0817 4.50114C23.5631 4.99124 23.8336 5.65597 23.8336 6.34909C23.8336 8.17972 22.2555 9.94377 20.9311 11.1005Z" fill="url(#paint1_linear_8004_4738)"/>
</g>
<defs>
<linearGradient id="paint0_linear_8004_4738" x1="21.4131" y1="13.7568" x2="21.7075" y2="31.9376" gradientUnits="userSpaceOnUse">
<stop stop-color="#50BFCB"/>
<stop offset="1" stop-color="#50BFCB" stop-opacity="0.42"/>
</linearGradient>
<linearGradient id="paint1_linear_8004_4738" x1="19.6341" y1="-1.98013" x2="20.5346" y2="18.5394" gradientUnits="userSpaceOnUse">
<stop stop-color="#50BFCB"/>
<stop offset="1" stop-color="#50BFCB" stop-opacity="0.42"/>
</linearGradient>
<clipPath id="clip0_8004_4738">
<rect width="36" height="29" fill="white" transform="translate(0 0.5)"/>
</clipPath>
</defs>
</svg>
