<svg width="36" height="29" viewBox="0 0 36 29" fill="none" xmlns="http://www.w3.org/2000/svg">
<g clip-path="url(#clip0_8004_1233)">
<path d="M1 21.097C7.25844 18.9748 23.4261 15.2601 23.4261 17.9107C23.9476 19.5044 16.4518 21.4402 17.6892 21.0966C19.7753 20.5171 23.1818 21.2218 28.6414 18.4421C32.8137 16.3179 34.3784 17.9108 34.3784 17.9108C34.3784 17.9108 36.3222 19.5761 33.3353 21.0966C28.1199 23.7514 22.383 27.4689 16.1246 27.4689C9.86612 27.4689 7.25844 23.7523 1 28" stroke="white" stroke-width="1.5" stroke-linecap="round"/>
<path d="M21.2667 1.74219C20.0388 1.74219 18.9491 2.23562 18.2108 3.08374C17.4725 2.23562 16.3828 1.74219 15.1549 1.74219C14.0855 1.7435 13.0603 2.17661 12.3041 2.94649C11.5479 3.71638 11.1225 4.76019 11.1212 5.84897C11.1212 10.3503 17.588 13.9468 17.8631 14.098C17.9699 14.1566 18.0894 14.1873 18.2108 14.1873C18.3322 14.1873 18.4517 14.1566 18.5586 14.098C18.8336 13.9468 25.3004 10.3503 25.3004 5.84897C25.2992 4.76019 24.8738 3.71638 24.1176 2.94649C23.3614 2.17661 22.3361 1.7435 21.2667 1.74219ZM20.9312 10.6004C20.0799 11.3358 19.17 11.9976 18.2108 12.5791C17.2516 11.9976 16.3417 11.3358 15.4905 10.6004C14.166 9.44365 12.588 7.6796 12.588 5.84897C12.588 5.15585 12.8584 4.49112 13.3398 4.00101C13.8212 3.5109 14.4741 3.23556 15.1549 3.23556C16.2428 3.23556 17.1535 3.82047 17.5318 4.76254C17.5869 4.89987 17.6808 5.0174 17.8018 5.10012C17.9227 5.18285 18.0651 5.22703 18.2108 5.22703C18.3565 5.22703 18.4989 5.18285 18.6198 5.10012C18.7408 5.0174 18.8348 4.89987 18.8898 4.76254C19.2681 3.82047 20.1788 3.23556 21.2667 3.23556C21.9475 3.23556 22.6004 3.5109 23.0818 4.00101C23.5632 4.49112 23.8336 5.15585 23.8336 5.84897C23.8336 7.6796 22.2556 9.44365 20.9312 10.6004Z" fill="white"/>
</g>
<defs>
<clipPath id="clip0_8004_1233">
<rect width="36" height="29" fill="white"/>
</clipPath>
</defs>
</svg>
